<svg width="14" height="12" viewBox="0 0 14 12" fill="none" xmlns="http://www.w3.org/2000/svg">
<path d="M0.7 0.7V0C0.514348 0 0.336301 0.0737499 0.205025 0.205025C0.0737498 0.336301 0 0.514348 0 0.7H0.7ZM13.3 0.7H14C14 0.514348 13.9263 0.336301 13.795 0.205025C13.6637 0.0737499 13.4857 0 13.3 0V0.7ZM0.7 1.4H13.3V0H0.7V1.4ZM12.6 0.7V9.1H14V0.7H12.6ZM11.9 9.8H2.1V11.2H11.9V9.8ZM1.4 9.1V0.7H0V9.1H1.4ZM2.1 9.8C1.91435 9.8 1.7363 9.72625 1.60503 9.59498C1.47375 9.4637 1.4 9.28565 1.4 9.1H0C0 9.65695 0.221249 10.1911 0.615076 10.5849C1.0089 10.9788 1.54305 11.2 2.1 11.2V9.8ZM12.6 9.1C12.6 9.28565 12.5263 9.4637 12.395 9.59498C12.2637 9.72625 12.0857 9.8 11.9 9.8V11.2C12.457 11.2 12.9911 10.9788 13.3849 10.5849C13.7788 10.1911 14 9.65695 14 9.1H12.6Z" fill="white"/>
<path d="M0.699951 0.700195L6.99995 7.0002L13.3 0.700195" stroke="white" stroke-linecap="round" stroke-linejoin="round"/>
</svg>
