<svg width="2151" height="1332" viewBox="0 0 2151 1332" fill="none" xmlns="http://www.w3.org/2000/svg">
<path d="M1 1061L2148 1061" stroke="#620C11" stroke-width="0.2"/>
<path d="M1.99902 1071L2149 1071" stroke="#620C11" stroke-width="0.2"/>
<path d="M1 1081L2148 1081" stroke="#620C11" stroke-width="0.2"/>
<path d="M1.99902 1191L2149 1191" stroke="#620C11" stroke-width="0.2"/>
<path d="M1.99902 1121L2149 1121" stroke="#620C11" stroke-width="0.2"/>
<path d="M1.99902 1161L2149 1161" stroke="#620C11" stroke-width="0.2"/>
<path d="M1 1131L2148 1131" stroke="#620C11" stroke-width="0.2"/>
<path d="M1.99902 1171L2149 1171" stroke="#620C11" stroke-width="0.2"/>
<path d="M1.99902 1141L2149 1141" stroke="#620C11" stroke-width="0.2"/>
<path d="M1 1181L2148 1181" stroke="#620C11" stroke-width="0.2"/>
<path d="M1.99902 1101L2149 1101" stroke="#620C11" stroke-width="0.2"/>
<path d="M1 1151L2148 1151" stroke="#620C11" stroke-width="0.2"/>
<path d="M1 1111L2148 1111" stroke="#620C11" stroke-width="0.2"/>
<path d="M1.99902 1091L2149 1091" stroke="#620C11" stroke-width="0.2"/>
<path d="M1.99902 1331L2149 1331" stroke="#620C11" stroke-width="0.2"/>
<path d="M1 1321L2148 1321" stroke="#620C11" stroke-width="0.2"/>
<path d="M1.99902 1311L2149 1311" stroke="#620C11" stroke-width="0.2"/>
<path d="M1.99902 1301L2149 1301" stroke="#620C11" stroke-width="0.2"/>
<path d="M1 1291L2148 1291" stroke="#620C11" stroke-width="0.2"/>
<path d="M1.99902 1281L2149 1281" stroke="#620C11" stroke-width="0.2"/>
<path d="M1 1271L2148 1271" stroke="#620C11" stroke-width="0.2"/>
<path d="M1.99902 1261L2149 1261" stroke="#620C11" stroke-width="0.2"/>
<path d="M1 1251L2148 1251" stroke="#620C11" stroke-width="0.2"/>
<path d="M1.99902 1241L2149 1241" stroke="#620C11" stroke-width="0.2"/>
<path d="M1.99902 1231L2149 1231" stroke="#620C11" stroke-width="0.2"/>
<path d="M1 1221L2148 1221" stroke="#620C11" stroke-width="0.2"/>
<path d="M1.99902 1211L2149 1211" stroke="#620C11" stroke-width="0.2"/>
<path d="M1 1201L2148 1201" stroke="#620C11" stroke-width="0.2"/>
<path d="M1 781L2148 781" stroke="#620C11" stroke-width="0.2"/>
<path d="M1.99902 791L2149 791" stroke="#620C11" stroke-width="0.2"/>
<path d="M1 801L2148 801" stroke="#620C11" stroke-width="0.2"/>
<path d="M1.99902 911L2149 911" stroke="#620C11" stroke-width="0.2"/>
<path d="M1.99902 841L2149 841" stroke="#620C11" stroke-width="0.2"/>
<path d="M1.99902 881L2149 881" stroke="#620C11" stroke-width="0.2"/>
<path d="M1 851L2148 851" stroke="#620C11" stroke-width="0.2"/>
<path d="M1.99902 891L2149 891" stroke="#620C11" stroke-width="0.2"/>
<path d="M1.99902 861L2149 861" stroke="#620C11" stroke-width="0.2"/>
<path d="M1 901L2148 901" stroke="#620C11" stroke-width="0.2"/>
<path d="M1.99902 821L2149 821" stroke="#620C11" stroke-width="0.2"/>
<path d="M1 871L2148 871" stroke="#620C11" stroke-width="0.2"/>
<path d="M1 831L2148 831" stroke="#620C11" stroke-width="0.2"/>
<path d="M1.99902 811L2149 811" stroke="#620C11" stroke-width="0.2"/>
<path d="M1.99902 1051L2149 1051" stroke="#620C11" stroke-width="0.2"/>
<path d="M1 1041L2148 1041" stroke="#620C11" stroke-width="0.2"/>
<path d="M1.99902 1031L2149 1031" stroke="#620C11" stroke-width="0.2"/>
<path d="M1.99902 1021L2149 1021" stroke="#620C11" stroke-width="0.2"/>
<path d="M1 1011L2148 1011" stroke="#620C11" stroke-width="0.2"/>
<path d="M1.99902 1001L2149 1001" stroke="#620C11" stroke-width="0.2"/>
<path d="M1 991L2148 991" stroke="#620C11" stroke-width="0.2"/>
<path d="M1.99902 981L2149 981" stroke="#620C11" stroke-width="0.2"/>
<path d="M1 971L2148 971" stroke="#620C11" stroke-width="0.2"/>
<path d="M1.99902 961L2149 961" stroke="#620C11" stroke-width="0.2"/>
<path d="M1.99902 951L2149 951" stroke="#620C11" stroke-width="0.2"/>
<path d="M1 941L2148 941" stroke="#620C11" stroke-width="0.2"/>
<path d="M1.99902 931L2149 931" stroke="#620C11" stroke-width="0.2"/>
<path d="M1 921L2148 921" stroke="#620C11" stroke-width="0.2"/>
<path d="M1 501L2148 501" stroke="#620C11" stroke-width="0.2"/>
<path d="M1.99902 511L2149 511" stroke="#620C11" stroke-width="0.2"/>
<path d="M1 521L2148 521" stroke="#620C11" stroke-width="0.2"/>
<path d="M1.99902 631L2149 631" stroke="#620C11" stroke-width="0.2"/>
<path d="M1.99902 561L2149 561" stroke="#620C11" stroke-width="0.2"/>
<path d="M1.99902 601L2149 601" stroke="#620C11" stroke-width="0.2"/>
<path d="M1 571L2148 571" stroke="#620C11" stroke-width="0.2"/>
<path d="M1.99902 611L2149 611" stroke="#620C11" stroke-width="0.2"/>
<path d="M1.99902 581L2149 581" stroke="#620C11" stroke-width="0.2"/>
<path d="M1 621L2148 621" stroke="#620C11" stroke-width="0.2"/>
<path d="M1.99902 541L2149 541" stroke="#620C11" stroke-width="0.2"/>
<path d="M1 591L2148 591" stroke="#620C11" stroke-width="0.2"/>
<path d="M1 551L2148 551" stroke="#620C11" stroke-width="0.2"/>
<path d="M1.99902 531L2149 531" stroke="#620C11" stroke-width="0.2"/>
<path d="M1.99902 771L2149 771" stroke="#620C11" stroke-width="0.2"/>
<path d="M1 761L2148 761" stroke="#620C11" stroke-width="0.2"/>
<path d="M1.99902 751L2149 751" stroke="#620C11" stroke-width="0.2"/>
<path d="M1.99902 741L2149 741" stroke="#620C11" stroke-width="0.2"/>
<path d="M1 731L2148 731" stroke="#620C11" stroke-width="0.2"/>
<path d="M1.99902 721L2149 721" stroke="#620C11" stroke-width="0.2"/>
<path d="M1 711L2148 711" stroke="#620C11" stroke-width="0.2"/>
<path d="M1.99902 701L2149 701" stroke="#620C11" stroke-width="0.2"/>
<path d="M1 691L2148 691" stroke="#620C11" stroke-width="0.2"/>
<path d="M1.99902 681L2149 681" stroke="#620C11" stroke-width="0.2"/>
<path d="M1.99902 671L2149 671" stroke="#620C11" stroke-width="0.2"/>
<path d="M1 661L2148 661" stroke="#620C11" stroke-width="0.2"/>
<path d="M1.99902 651L2149 651" stroke="#620C11" stroke-width="0.2"/>
<path d="M1 641L2148 641" stroke="#620C11" stroke-width="0.2"/>
<path d="M1 221L2148 221" stroke="#620C11" stroke-width="0.2"/>
<path d="M1 231L2148 231" stroke="#620C11" stroke-width="0.2"/>
<path d="M1 241L2148 241" stroke="#620C11" stroke-width="0.2"/>
<path d="M1.99902 351L2149 351" stroke="#620C11" stroke-width="0.2"/>
<path d="M1.99902 281L2149 281" stroke="#620C11" stroke-width="0.2"/>
<path d="M1.99902 321L2149 321" stroke="#620C11" stroke-width="0.2"/>
<path d="M1 291L2148 291" stroke="#620C11" stroke-width="0.2"/>
<path d="M1.99902 331L2149 331" stroke="#620C11" stroke-width="0.2"/>
<path d="M1.99902 301L2149 301" stroke="#620C11" stroke-width="0.2"/>
<path d="M1 341L2148 341" stroke="#620C11" stroke-width="0.2"/>
<path d="M1.99902 261L2149 261" stroke="#620C11" stroke-width="0.2"/>
<path d="M1 311L2148 311" stroke="#620C11" stroke-width="0.2"/>
<path d="M1 271L2148 271" stroke="#620C11" stroke-width="0.2"/>
<path d="M1.99902 251L2149 251" stroke="#620C11" stroke-width="0.2"/>
<path d="M1.99902 491L2149 491" stroke="#620C11" stroke-width="0.2"/>
<path d="M1 481L2148 481" stroke="#620C11" stroke-width="0.2"/>
<path d="M1.99902 471L2149 471" stroke="#620C11" stroke-width="0.2"/>
<path d="M1.99902 461L2149 461" stroke="#620C11" stroke-width="0.2"/>
<path d="M1 451L2148 451" stroke="#620C11" stroke-width="0.2"/>
<path d="M1.99902 441L2149 441" stroke="#620C11" stroke-width="0.2"/>
<path d="M1 431L2148 431" stroke="#620C11" stroke-width="0.2"/>
<path d="M1.99902 421L2149 421" stroke="#620C11" stroke-width="0.2"/>
<path d="M1 411L2148 411" stroke="#620C11" stroke-width="0.2"/>
<path d="M1.99902 401L2149 401" stroke="#620C11" stroke-width="0.2"/>
<path d="M1.99902 391L2149 391" stroke="#620C11" stroke-width="0.2"/>
<path d="M1 381L2148 381" stroke="#620C11" stroke-width="0.2"/>
<path d="M1.99902 371L2149 371" stroke="#620C11" stroke-width="0.2"/>
<path d="M1 361L2148 361" stroke="#620C11" stroke-width="0.2"/>
<path d="M1 1.00024L2148 1.00005" stroke="#620C11" stroke-width="0.2"/>
<path d="M1.99902 11.0002L2149 11.0001" stroke="#620C11" stroke-width="0.2"/>
<path d="M1 21.0002L2148 21.0001" stroke="#620C11" stroke-width="0.2"/>
<path d="M1.99902 131L2149 131" stroke="#620C11" stroke-width="0.2"/>
<path d="M1.99902 61.0002L2149 61.0001" stroke="#620C11" stroke-width="0.2"/>
<path d="M1.99902 101L2149 101" stroke="#620C11" stroke-width="0.2"/>
<path d="M1 71.0002L2148 71.0001" stroke="#620C11" stroke-width="0.2"/>
<path d="M1.99902 111L2149 111" stroke="#620C11" stroke-width="0.2"/>
<path d="M1.99902 81.0002L2149 81.0001" stroke="#620C11" stroke-width="0.2"/>
<path d="M1 121L2148 121" stroke="#620C11" stroke-width="0.2"/>
<path d="M1.99902 41.0002L2149 41.0001" stroke="#620C11" stroke-width="0.2"/>
<path d="M1 91.0002L2148 91.0001" stroke="#620C11" stroke-width="0.2"/>
<path d="M1 51.0002L2148 51.0001" stroke="#620C11" stroke-width="0.2"/>
<path d="M1.99902 31.0002L2149 31.0001" stroke="#620C11" stroke-width="0.2"/>
<path d="M1 211L2148 211" stroke="#620C11" stroke-width="0.2"/>
<path d="M1 201L2148 201" stroke="#620C11" stroke-width="0.2"/>
<path d="M1 191L2148 191" stroke="#620C11" stroke-width="0.2"/>
<path d="M1.99902 181L2149 181" stroke="#620C11" stroke-width="0.2"/>
<path d="M1.99902 171L2149 171" stroke="#620C11" stroke-width="0.2"/>
<path d="M1 161L2148 161" stroke="#620C11" stroke-width="0.2"/>
<path d="M1.99902 151L2149 151" stroke="#620C11" stroke-width="0.2"/>
<path d="M1 141L2148 141" stroke="#620C11" stroke-width="0.2"/>
<path d="M1061 1331L1061 3.61756" stroke="#620C11" stroke-width="0.2"/>
<path d="M1071 1330.38L1071 2.99989" stroke="#620C11" stroke-width="0.2"/>
<path d="M1081 1331L1081 3.61756" stroke="#620C11" stroke-width="0.2"/>
<path d="M1191 1330.38L1191 2.99989" stroke="#620C11" stroke-width="0.2"/>
<path d="M1121 1330.38L1121 2.99989" stroke="#620C11" stroke-width="0.2"/>
<path d="M1161 1330.38L1161 2.99989" stroke="#620C11" stroke-width="0.2"/>
<path d="M1131 1331L1131 3.61756" stroke="#620C11" stroke-width="0.2"/>
<path d="M1171 1330.38L1171 2.99989" stroke="#620C11" stroke-width="0.2"/>
<path d="M1141 1330.38L1141 2.99989" stroke="#620C11" stroke-width="0.2"/>
<path d="M1181 1331L1181 3.61756" stroke="#620C11" stroke-width="0.2"/>
<path d="M1101 1330.38L1101 2.99989" stroke="#620C11" stroke-width="0.2"/>
<path d="M1151 1331L1151 3.61756" stroke="#620C11" stroke-width="0.2"/>
<path d="M1111 1331L1111 3.61756" stroke="#620C11" stroke-width="0.2"/>
<path d="M1091 1330.38L1091 2.99989" stroke="#620C11" stroke-width="0.2"/>
<path d="M1331 1330.38L1331 2.99989" stroke="#620C11" stroke-width="0.2"/>
<path d="M1321 1331L1321 3.61756" stroke="#620C11" stroke-width="0.2"/>
<path d="M1311 1330.38L1311 2.99989" stroke="#620C11" stroke-width="0.2"/>
<path d="M1301 1330.38L1301 2.99989" stroke="#620C11" stroke-width="0.2"/>
<path d="M1291 1331L1291 3.61756" stroke="#620C11" stroke-width="0.2"/>
<path d="M1281 1330.38L1281 2.99989" stroke="#620C11" stroke-width="0.2"/>
<path d="M1271 1331L1271 3.61756" stroke="#620C11" stroke-width="0.2"/>
<path d="M1261 1330.38L1261 2.99989" stroke="#620C11" stroke-width="0.2"/>
<path d="M1251 1331L1251 3.61756" stroke="#620C11" stroke-width="0.2"/>
<path d="M1241 1330.38L1241 2.99989" stroke="#620C11" stroke-width="0.2"/>
<path d="M1231 1330.38L1231 2.99989" stroke="#620C11" stroke-width="0.2"/>
<path d="M1221 1331L1221 3.61756" stroke="#620C11" stroke-width="0.2"/>
<path d="M1211 1330.38L1211 2.99989" stroke="#620C11" stroke-width="0.2"/>
<path d="M1201 1331L1201 3.61756" stroke="#620C11" stroke-width="0.2"/>
<path d="M781 1331L781 3.61756" stroke="#620C11" stroke-width="0.2"/>
<path d="M791 1330.38L791 2.99989" stroke="#620C11" stroke-width="0.2"/>
<path d="M801 1331L801 3.61756" stroke="#620C11" stroke-width="0.2"/>
<path d="M911 1330.38L911 2.99989" stroke="#620C11" stroke-width="0.2"/>
<path d="M841 1330.38L841 2.99989" stroke="#620C11" stroke-width="0.2"/>
<path d="M881 1330.38L881 2.99989" stroke="#620C11" stroke-width="0.2"/>
<path d="M851 1331L851 3.61756" stroke="#620C11" stroke-width="0.2"/>
<path d="M891 1330.38L891 2.99989" stroke="#620C11" stroke-width="0.2"/>
<path d="M861 1330.38L861 2.99989" stroke="#620C11" stroke-width="0.2"/>
<path d="M901 1331L901 3.61756" stroke="#620C11" stroke-width="0.2"/>
<path d="M821 1330.38L821 2.99989" stroke="#620C11" stroke-width="0.2"/>
<path d="M871 1331L871 3.61756" stroke="#620C11" stroke-width="0.2"/>
<path d="M831 1331L831 3.61756" stroke="#620C11" stroke-width="0.2"/>
<path d="M811 1330.38L811 2.99989" stroke="#620C11" stroke-width="0.2"/>
<path d="M1051 1330.38L1051 2.99989" stroke="#620C11" stroke-width="0.2"/>
<path d="M1041 1331L1041 3.61756" stroke="#620C11" stroke-width="0.2"/>
<path d="M1031 1330.38L1031 2.99989" stroke="#620C11" stroke-width="0.2"/>
<path d="M1021 1330.38L1021 2.99989" stroke="#620C11" stroke-width="0.2"/>
<path d="M1011 1331L1011 3.61756" stroke="#620C11" stroke-width="0.2"/>
<path d="M1001 1330.38L1001 2.99989" stroke="#620C11" stroke-width="0.2"/>
<path d="M991 1331L991 3.61756" stroke="#620C11" stroke-width="0.2"/>
<path d="M981 1330.38L981 2.99989" stroke="#620C11" stroke-width="0.2"/>
<path d="M971 1331L971 3.61756" stroke="#620C11" stroke-width="0.2"/>
<path d="M961 1330.38L961 2.99989" stroke="#620C11" stroke-width="0.2"/>
<path d="M951 1330.38L951 2.99989" stroke="#620C11" stroke-width="0.2"/>
<path d="M941 1331L941 3.61756" stroke="#620C11" stroke-width="0.2"/>
<path d="M931 1330.38L931 2.99989" stroke="#620C11" stroke-width="0.2"/>
<path d="M921 1331L921 3.61756" stroke="#620C11" stroke-width="0.2"/>
<path d="M501 1331L501 3.61756" stroke="#620C11" stroke-width="0.2"/>
<path d="M511 1330.38L511 2.99989" stroke="#620C11" stroke-width="0.2"/>
<path d="M521 1331L521 3.61756" stroke="#620C11" stroke-width="0.2"/>
<path d="M631 1330.38L631 2.99989" stroke="#620C11" stroke-width="0.2"/>
<path d="M561 1330.38L561 2.99989" stroke="#620C11" stroke-width="0.2"/>
<path d="M601 1330.38L601 2.99989" stroke="#620C11" stroke-width="0.2"/>
<path d="M571 1331L571 3.61756" stroke="#620C11" stroke-width="0.2"/>
<path d="M611 1330.38L611 2.99989" stroke="#620C11" stroke-width="0.2"/>
<path d="M581 1330.38L581 2.99989" stroke="#620C11" stroke-width="0.2"/>
<path d="M621 1331L621 3.61756" stroke="#620C11" stroke-width="0.2"/>
<path d="M541 1330.38L541 2.99989" stroke="#620C11" stroke-width="0.2"/>
<path d="M591 1331L591 3.61756" stroke="#620C11" stroke-width="0.2"/>
<path d="M551 1331L551 3.61756" stroke="#620C11" stroke-width="0.2"/>
<path d="M531 1330.38L531 2.99989" stroke="#620C11" stroke-width="0.2"/>
<path d="M771 1330.38L771 2.99989" stroke="#620C11" stroke-width="0.2"/>
<path d="M761 1331L761 3.61756" stroke="#620C11" stroke-width="0.2"/>
<path d="M751 1330.38L751 2.99989" stroke="#620C11" stroke-width="0.2"/>
<path d="M741 1330.38L741 2.99989" stroke="#620C11" stroke-width="0.2"/>
<path d="M731 1331L731 3.61756" stroke="#620C11" stroke-width="0.2"/>
<path d="M721 1330.38L721 2.99989" stroke="#620C11" stroke-width="0.2"/>
<path d="M711 1331L711 3.61756" stroke="#620C11" stroke-width="0.2"/>
<path d="M701 1330.38L701 2.99989" stroke="#620C11" stroke-width="0.2"/>
<path d="M691 1331L691 3.61756" stroke="#620C11" stroke-width="0.2"/>
<path d="M681 1330.38L681 2.99989" stroke="#620C11" stroke-width="0.2"/>
<path d="M671 1330.38L671 2.99989" stroke="#620C11" stroke-width="0.2"/>
<path d="M661 1331L661 3.61756" stroke="#620C11" stroke-width="0.2"/>
<path d="M651 1330.38L651 2.99989" stroke="#620C11" stroke-width="0.2"/>
<path d="M641 1331L641 3.61756" stroke="#620C11" stroke-width="0.2"/>
<path d="M221 1331L221 3.61756" stroke="#620C11" stroke-width="0.2"/>
<path d="M231 1331L231 3.61756" stroke="#620C11" stroke-width="0.2"/>
<path d="M241 1331L241 3.61756" stroke="#620C11" stroke-width="0.2"/>
<path d="M351 1330.38L351 2.99989" stroke="#620C11" stroke-width="0.2"/>
<path d="M281 1330.38L281 2.99989" stroke="#620C11" stroke-width="0.2"/>
<path d="M321 1330.38L321 2.99989" stroke="#620C11" stroke-width="0.2"/>
<path d="M291 1331L291 3.61756" stroke="#620C11" stroke-width="0.2"/>
<path d="M331 1330.38L331 2.99989" stroke="#620C11" stroke-width="0.2"/>
<path d="M301 1330.38L301 2.99989" stroke="#620C11" stroke-width="0.2"/>
<path d="M341 1331L341 3.61756" stroke="#620C11" stroke-width="0.2"/>
<path d="M261 1330.38L261 2.99989" stroke="#620C11" stroke-width="0.2"/>
<path d="M311 1331L311 3.61756" stroke="#620C11" stroke-width="0.2"/>
<path d="M271 1331L271 3.61756" stroke="#620C11" stroke-width="0.2"/>
<path d="M251 1330.38L251 2.99989" stroke="#620C11" stroke-width="0.2"/>
<path d="M491 1330.38L491 2.99989" stroke="#620C11" stroke-width="0.2"/>
<path d="M481 1331L481 3.61756" stroke="#620C11" stroke-width="0.2"/>
<path d="M471 1330.38L471 2.99989" stroke="#620C11" stroke-width="0.2"/>
<path d="M461 1330.38L461 2.99989" stroke="#620C11" stroke-width="0.2"/>
<path d="M451 1331L451 3.61756" stroke="#620C11" stroke-width="0.2"/>
<path d="M441 1330.38L441 2.99989" stroke="#620C11" stroke-width="0.2"/>
<path d="M431 1331L431 3.61756" stroke="#620C11" stroke-width="0.2"/>
<path d="M421 1330.38L421 2.99989" stroke="#620C11" stroke-width="0.2"/>
<path d="M411 1331L411 3.61756" stroke="#620C11" stroke-width="0.2"/>
<path d="M401 1330.38L401 2.99989" stroke="#620C11" stroke-width="0.2"/>
<path d="M391 1330.38L391 2.99989" stroke="#620C11" stroke-width="0.2"/>
<path d="M381 1331L381 3.61756" stroke="#620C11" stroke-width="0.2"/>
<path d="M371 1330.38L371 2.99989" stroke="#620C11" stroke-width="0.2"/>
<path d="M361 1331L361 3.61756" stroke="#620C11" stroke-width="0.2"/>
<path d="M1 1331L0.999883 3.61756" stroke="#620C11" stroke-width="0.2"/>
<path d="M11 1330.38L10.9998 2.99989" stroke="#620C11" stroke-width="0.2"/>
<path d="M21 1331L20.9999 3.61756" stroke="#620C11" stroke-width="0.2"/>
<path d="M131 1330.38L131 2.99989" stroke="#620C11" stroke-width="0.2"/>
<path d="M61 1330.38L60.9998 2.99989" stroke="#620C11" stroke-width="0.2"/>
<path d="M101 1330.38L101 2.99989" stroke="#620C11" stroke-width="0.2"/>
<path d="M71 1331L70.9999 3.61756" stroke="#620C11" stroke-width="0.2"/>
<path d="M111 1330.38L111 2.99989" stroke="#620C11" stroke-width="0.2"/>
<path d="M81 1330.38L80.9998 2.99989" stroke="#620C11" stroke-width="0.2"/>
<path d="M121 1331L121 3.61756" stroke="#620C11" stroke-width="0.2"/>
<path d="M41 1330.38L40.9998 2.99989" stroke="#620C11" stroke-width="0.2"/>
<path d="M91 1331L90.9999 3.61756" stroke="#620C11" stroke-width="0.2"/>
<path d="M51 1331L50.9999 3.61756" stroke="#620C11" stroke-width="0.2"/>
<path d="M31 1330.38L30.9998 2.99989" stroke="#620C11" stroke-width="0.2"/>
<path d="M211 1331L211 3.61756" stroke="#620C11" stroke-width="0.2"/>
<path d="M201 1331L201 3.61756" stroke="#620C11" stroke-width="0.2"/>
<path d="M191 1331L191 3.61756" stroke="#620C11" stroke-width="0.2"/>
<path d="M181 1330.38L181 2.99989" stroke="#620C11" stroke-width="0.2"/>
<path d="M171 1330.38L171 2.99989" stroke="#620C11" stroke-width="0.2"/>
<path d="M161 1331L161 3.61756" stroke="#620C11" stroke-width="0.2"/>
<path d="M151 1330.38L151 2.99989" stroke="#620C11" stroke-width="0.2"/>
<path d="M141 1331L141 3.61756" stroke="#620C11" stroke-width="0.2"/>
<path d="M2150 1330L2150 2.61756" stroke="#620C11" stroke-width="0.2"/>
<path d="M2140 1329.38L2140 1.99989" stroke="#620C11" stroke-width="0.2"/>
<path d="M2130 1330L2130 2.61756" stroke="#620C11" stroke-width="0.2"/>
<path d="M2120 1329.38L2120 1.99989" stroke="#620C11" stroke-width="0.2"/>
<path d="M2110 1330L2110 2.61756" stroke="#620C11" stroke-width="0.2"/>
<path d="M2100 1329.38L2100 1.99989" stroke="#620C11" stroke-width="0.2"/>
<path d="M1820 1330L1820 2.61756" stroke="#620C11" stroke-width="0.2"/>
<path d="M1830 1329.38L1830 1.99989" stroke="#620C11" stroke-width="0.2"/>
<path d="M1840 1330L1840 2.61756" stroke="#620C11" stroke-width="0.2"/>
<path d="M1950 1329.38L1950 1.99989" stroke="#620C11" stroke-width="0.2"/>
<path d="M1880 1329.38L1880 1.99989" stroke="#620C11" stroke-width="0.2"/>
<path d="M1920 1329.38L1920 1.99989" stroke="#620C11" stroke-width="0.2"/>
<path d="M1890 1330L1890 2.61756" stroke="#620C11" stroke-width="0.2"/>
<path d="M1930 1329.38L1930 1.99989" stroke="#620C11" stroke-width="0.2"/>
<path d="M1900 1329.38L1900 1.99989" stroke="#620C11" stroke-width="0.2"/>
<path d="M1940 1330L1940 2.61756" stroke="#620C11" stroke-width="0.2"/>
<path d="M1860 1329.38L1860 1.99989" stroke="#620C11" stroke-width="0.2"/>
<path d="M1910 1330L1910 2.61756" stroke="#620C11" stroke-width="0.2"/>
<path d="M1870 1330L1870 2.61756" stroke="#620C11" stroke-width="0.2"/>
<path d="M1850 1329.38L1850 1.99989" stroke="#620C11" stroke-width="0.2"/>
<path d="M2090 1329.38L2090 1.99989" stroke="#620C11" stroke-width="0.2"/>
<path d="M2080 1330L2080 2.61756" stroke="#620C11" stroke-width="0.2"/>
<path d="M2070 1329.38L2070 1.99989" stroke="#620C11" stroke-width="0.2"/>
<path d="M2060 1329.38L2060 1.99989" stroke="#620C11" stroke-width="0.2"/>
<path d="M2050 1330L2050 2.61756" stroke="#620C11" stroke-width="0.2"/>
<path d="M2040 1329.38L2040 1.99989" stroke="#620C11" stroke-width="0.2"/>
<path d="M2030 1330L2030 2.61756" stroke="#620C11" stroke-width="0.2"/>
<path d="M2020 1329.38L2020 1.99989" stroke="#620C11" stroke-width="0.2"/>
<path d="M2010 1330L2010 2.61756" stroke="#620C11" stroke-width="0.2"/>
<path d="M2000 1329.38L2000 1.99989" stroke="#620C11" stroke-width="0.2"/>
<path d="M1990 1329.38L1990 1.99989" stroke="#620C11" stroke-width="0.2"/>
<path d="M1980 1330L1980 2.61756" stroke="#620C11" stroke-width="0.2"/>
<path d="M1970 1329.38L1970 1.99989" stroke="#620C11" stroke-width="0.2"/>
<path d="M1960 1330L1960 2.61756" stroke="#620C11" stroke-width="0.2"/>
<path d="M1810 1329.38L1810 1.99989" stroke="#620C11" stroke-width="0.2"/>
<path d="M1800 1330L1800 2.61756" stroke="#620C11" stroke-width="0.2"/>
<path d="M1790 1329.38L1790 1.99989" stroke="#620C11" stroke-width="0.2"/>
<path d="M1780 1329.38L1780 1.99989" stroke="#620C11" stroke-width="0.2"/>
<path d="M1770 1330L1770 2.61756" stroke="#620C11" stroke-width="0.2"/>
<path d="M1760 1329.38L1760 1.99989" stroke="#620C11" stroke-width="0.2"/>
<path d="M1750 1330L1750 2.61756" stroke="#620C11" stroke-width="0.2"/>
<path d="M1740 1329.38L1740 1.99989" stroke="#620C11" stroke-width="0.2"/>
<path d="M1730 1330L1730 2.61756" stroke="#620C11" stroke-width="0.2"/>
<path d="M1720 1329.38L1720 1.99989" stroke="#620C11" stroke-width="0.2"/>
<path d="M1440 1331L1440 3.61756" stroke="#620C11" stroke-width="0.2"/>
<path d="M1450 1330.38L1450 2.99989" stroke="#620C11" stroke-width="0.2"/>
<path d="M1460 1331L1460 3.61756" stroke="#620C11" stroke-width="0.2"/>
<path d="M1570 1330.38L1570 2.99989" stroke="#620C11" stroke-width="0.2"/>
<path d="M1500 1330.38L1500 2.99989" stroke="#620C11" stroke-width="0.2"/>
<path d="M1540 1330.38L1540 2.99989" stroke="#620C11" stroke-width="0.2"/>
<path d="M1510 1331L1510 3.61756" stroke="#620C11" stroke-width="0.2"/>
<path d="M1550 1330.38L1550 2.99989" stroke="#620C11" stroke-width="0.2"/>
<path d="M1520 1330.38L1520 2.99989" stroke="#620C11" stroke-width="0.2"/>
<path d="M1560 1331L1560 3.61756" stroke="#620C11" stroke-width="0.2"/>
<path d="M1480 1330.38L1480 2.99989" stroke="#620C11" stroke-width="0.2"/>
<path d="M1530 1331L1530 3.61756" stroke="#620C11" stroke-width="0.2"/>
<path d="M1490 1331L1490 3.61756" stroke="#620C11" stroke-width="0.2"/>
<path d="M1470 1330.38L1470 2.99989" stroke="#620C11" stroke-width="0.2"/>
<path d="M1710 1330.38L1710 2.99989" stroke="#620C11" stroke-width="0.2"/>
<path d="M1700 1331L1700 3.61756" stroke="#620C11" stroke-width="0.2"/>
<path d="M1690 1330.38L1690 2.99989" stroke="#620C11" stroke-width="0.2"/>
<path d="M1680 1330.38L1680 2.99989" stroke="#620C11" stroke-width="0.2"/>
<path d="M1670 1331L1670 3.61756" stroke="#620C11" stroke-width="0.2"/>
<path d="M1660 1330.38L1660 2.99989" stroke="#620C11" stroke-width="0.2"/>
<path d="M1650 1331L1650 3.61756" stroke="#620C11" stroke-width="0.2"/>
<path d="M1640 1330.38L1640 2.99989" stroke="#620C11" stroke-width="0.2"/>
<path d="M1630 1331L1630 3.61756" stroke="#620C11" stroke-width="0.2"/>
<path d="M1620 1330.38L1620 2.99989" stroke="#620C11" stroke-width="0.2"/>
<path d="M1610 1330.38L1610 2.99989" stroke="#620C11" stroke-width="0.2"/>
<path d="M1600 1331L1600 3.61756" stroke="#620C11" stroke-width="0.2"/>
<path d="M1590 1330.38L1590 2.99989" stroke="#620C11" stroke-width="0.2"/>
<path d="M1580 1331L1580 3.61756" stroke="#620C11" stroke-width="0.2"/>
<path d="M1430 1330.38L1430 2.99989" stroke="#620C11" stroke-width="0.2"/>
<path d="M1420 1331L1420 3.61756" stroke="#620C11" stroke-width="0.2"/>
<path d="M1410 1330.38L1410 2.99989" stroke="#620C11" stroke-width="0.2"/>
<path d="M1400 1330.38L1400 2.99989" stroke="#620C11" stroke-width="0.2"/>
<path d="M1390 1331L1390 3.61756" stroke="#620C11" stroke-width="0.2"/>
<path d="M1380 1330.38L1380 2.99989" stroke="#620C11" stroke-width="0.2"/>
<path d="M1370 1331L1370 3.61756" stroke="#620C11" stroke-width="0.2"/>
<path d="M1360 1330.38L1360 2.99989" stroke="#620C11" stroke-width="0.2"/>
<path d="M1350 1331L1350 3.61756" stroke="#620C11" stroke-width="0.2"/>
<path d="M1340 1330.38L1340 2.99989" stroke="#620C11" stroke-width="0.2"/>
</svg>
