<svg width="497" height="183" viewBox="0 0 497 183" fill="none" xmlns="http://www.w3.org/2000/svg">
<path d="M52.6484 79.9375H45.5586C42.5508 79.9375 40.3828 79.1758 39.0547 77.6523C37.7266 76.0898 37.0625 74.0391 37.0625 71.5C37.0625 65.875 41.2617 63.0625 49.6602 63.0625C57.5508 63.0625 63.4883 64.2344 67.4727 66.5781L64.0742 69.1562C61.3398 67.9062 56.5352 67.2812 49.6602 67.2812C46.3008 67.2812 44.0352 67.6523 42.8633 68.3945C41.7305 69.1367 41.1641 70.1719 41.1641 71.5C41.1641 72.8281 41.4766 73.8633 42.1016 74.6055C42.7266 75.3477 43.8789 75.7188 45.5586 75.7188H52.8242C58.0977 75.7188 62.8438 76.6172 67.0625 78.4141C71.3203 80.2109 74.8164 82.6719 77.5508 85.7969C80.2852 88.8828 82.375 92.457 83.8203 96.5195C85.2656 100.543 85.9883 104.859 85.9883 109.469C85.9883 113.219 85.4609 116.773 84.4062 120.133C83.3516 123.492 81.75 126.578 79.6016 129.391C77.4922 132.203 74.9336 134.645 71.9258 136.715C68.957 138.746 65.4023 140.328 61.2617 141.461C57.1602 142.633 52.707 143.219 47.9023 143.219C40.3633 143.219 33.293 142.066 26.6914 139.762C20.1289 137.496 14.6602 134.312 10.2852 130.211L13.6836 127.691C17.668 131.285 22.6484 134.078 28.625 136.07C34.6406 138.023 41.0664 139 47.9023 139C53.2539 139 58.0781 138.238 62.375 136.715C66.7109 135.152 70.2656 133.023 73.0391 130.328C75.8516 127.633 78 124.508 79.4844 120.953C81.0078 117.398 81.7695 113.57 81.7695 109.469C81.7695 104.039 80.6758 99.1367 78.4883 94.7617C76.3008 90.3477 72.9609 86.7734 68.4688 84.0391C64.0156 81.3047 58.7422 79.9375 52.6484 79.9375ZM45.5586 84.1562H52.2383C60.168 84.1562 66.3594 86.5781 70.8125 91.4219C75.3047 96.2656 77.5508 102.281 77.5508 109.469C77.5508 116.773 74.9531 122.828 69.7578 127.633C64.5625 132.398 57.2773 134.781 47.9023 134.781C41.6523 134.781 35.8125 133.922 30.3828 132.203C24.9531 130.484 20.4414 128.062 16.8477 124.938L20.1289 122.301C23.332 124.918 27.3555 126.949 32.1992 128.395C37.082 129.84 42.3164 130.562 47.9023 130.562C56.1445 130.562 62.4336 128.59 66.7695 124.645C71.1445 120.699 73.332 115.641 73.332 109.469C73.332 103.375 71.4961 98.3359 67.8242 94.3516C64.1914 90.3672 58.9766 88.375 52.1797 88.375H45.5586C39.8555 88.375 35.5781 86.8125 32.7266 83.6875C29.875 80.5625 28.4492 76.5 28.4492 71.5C28.4492 66.5 30.207 62.4375 33.7227 59.3125C37.2773 56.1875 42.5898 54.625 49.6602 54.625C54.6211 54.625 59.2305 55.2109 63.4883 56.3828C67.7461 57.5156 71.2617 59.1562 74.0352 61.3047L70.6953 63.8828C65.8125 60.5234 58.8008 58.8438 49.6602 58.8438C43.7617 58.8438 39.4453 60.0156 36.7109 62.3594C34.0156 64.6641 32.668 67.7109 32.668 71.5C32.668 75.3281 33.6641 78.3945 35.6562 80.6992C37.6875 83.0039 40.9883 84.1562 45.5586 84.1562ZM45.5586 92.5938H52.0039C57.707 92.5938 61.9844 94.1758 64.8359 97.3398C67.6875 100.504 69.1133 104.547 69.1133 109.469C69.1133 114.469 67.3359 118.531 63.7812 121.656C60.2656 124.781 54.9727 126.344 47.9023 126.344C42.9414 126.344 38.3125 125.777 34.0156 124.645C29.7578 123.473 26.2422 121.812 23.4688 119.664L26.8086 117.086C31.6914 120.445 38.7227 122.125 47.9023 122.125C53.8008 122.125 58.0977 120.973 60.793 118.668C63.5273 116.324 64.8945 113.258 64.8945 109.469C64.8945 105.68 63.8789 102.633 61.8477 100.328C59.8164 97.9844 56.5156 96.8125 51.9453 96.8125H45.5586C37.5508 96.8125 31.2812 94.4297 26.75 89.6641C22.2578 84.8594 20.0117 78.8047 20.0117 71.5C20.0117 64.1953 22.6094 58.1602 27.8047 53.3945C33 48.5898 40.2852 46.1875 49.6602 46.1875C55.9102 46.1875 61.7305 47.0469 67.1211 48.7656C72.5508 50.4844 77.0625 52.9063 80.6562 56.0312L77.375 58.668C74.1719 56.0508 70.1484 54.0195 65.3047 52.5742C60.4609 51.1289 55.2461 50.4062 49.6602 50.4062C41.418 50.4062 35.1094 52.3789 30.7344 56.3242C26.3984 60.2695 24.2305 65.3281 24.2305 71.5C24.2305 77.6328 26.0664 82.6914 29.7383 86.6758C33.4102 90.6211 38.6836 92.5938 45.5586 92.5938ZM45.5586 101.031H52.0039C55.0117 101.031 57.1797 101.812 58.5078 103.375C59.8359 104.938 60.5 106.969 60.5 109.469C60.5 115.094 56.3008 117.906 47.9023 117.906C39.9727 117.906 34.0156 116.734 30.0312 114.391L33.4297 111.812C36.1641 113.062 40.9883 113.688 47.9023 113.688C51.2617 113.688 53.5078 113.316 54.6406 112.574C55.8125 111.832 56.3984 110.797 56.3984 109.469C56.3984 108.18 56.0664 107.164 55.4023 106.422C54.7773 105.641 53.6055 105.25 51.8867 105.25H45.5586C40.168 105.25 35.2852 104.371 30.9102 102.613C26.5742 100.855 23 98.4336 20.1875 95.3477C17.4141 92.2617 15.2852 88.6875 13.8008 84.625C12.3164 80.5625 11.5742 76.1875 11.5742 71.5C11.5742 67.75 12.1016 64.1953 13.1562 60.8359C14.2109 57.4766 15.793 54.3906 17.9023 51.5781C20.0508 48.7656 22.6094 46.3438 25.5781 44.3125C28.5859 42.2422 32.1406 40.6406 36.2422 39.5078C40.3828 38.3359 44.8555 37.75 49.6602 37.75C57.1992 37.75 64.25 38.9023 70.8125 41.207C77.375 43.4727 82.8438 46.6562 87.2188 50.7578L83.8203 53.2773C79.8359 49.6836 74.8555 46.9102 68.8789 44.957C62.9023 42.9648 56.4961 41.9688 49.6602 41.9688C44.3086 41.9688 39.4648 42.75 35.1289 44.3125C30.832 45.8359 27.2773 47.9453 24.4648 50.6406C21.6914 53.3359 19.543 56.4609 18.0195 60.0156C16.5352 63.5703 15.793 67.3984 15.793 71.5C15.793 77.0078 16.9062 81.9688 19.1328 86.3828C21.3594 90.7969 24.7578 94.3516 29.3281 97.0469C33.8984 99.7031 39.3086 101.031 45.5586 101.031ZM116.457 139H112.238V41.9688H116.457V139ZM108.02 139H103.801V41.9688H108.02V139ZM99.582 139H95.3633V41.9688H99.582V139ZM124.895 117.906H169.777V122.125H124.895V126.344H169.777V130.562H124.895V134.781H169.777V139H120.676V41.9688H169.777V46.1875H124.895V50.4062H169.777V54.625H124.895V58.8438H169.777V63.0625H124.895V79.9375H147.922V84.1562H124.895V88.375H147.922V92.5938H124.895V96.8125H147.922V101.031H124.895V117.906ZM176.926 41.9688H181.496L217.59 133.316L253.684 41.9688H258.195L219.875 139H215.305L176.926 41.9688ZM220.52 117.906L218.117 123.297L186.008 41.9688H190.52L220.52 117.906ZM225.031 106.363L222.805 112.164L195.09 41.9688H199.66L225.031 106.363ZM229.484 94.6445L227.258 100.562L204.172 41.9688H208.684L229.484 94.6445ZM280.871 41.9688H285.441L247.062 139H242.551L280.871 41.9688ZM271.848 41.9688H276.359L237.98 139H233.469L271.848 41.9688ZM262.707 41.9688H267.277L228.898 139H224.387L262.707 41.9688ZM314.27 139H310.051V41.9688H314.27V139ZM305.832 139H301.613V41.9688H305.832V139ZM297.395 139H293.176V41.9688H297.395V139ZM322.707 117.906H367.59V122.125H322.707V126.344H367.59V130.562H322.707V134.781H367.59V139H318.488V41.9688H367.59V46.1875H322.707V50.4062H367.59V54.625H322.707V58.8438H367.59V63.0625H322.707V79.9375H345.734V84.1562H322.707V88.375H345.734V92.5938H322.707V96.8125H345.734V101.031H322.707V117.906ZM446.926 92.3008L442.707 85.3281V41.9688H446.926V92.3008ZM455.363 106.129L451.145 99.0391V41.9688H455.363V106.129ZM463.801 120.133L459.582 112.984V41.9688H463.801V120.133ZM403.332 88.668L407.551 95.6406V139H403.332V88.668ZM394.895 74.8398L399.113 81.9297V139H394.895V74.8398ZM386.457 60.8359L390.676 67.9844V139H386.457V60.8359ZM387.922 41.9688H392.844L452.492 139H447.57L387.922 41.9688ZM397.883 41.9688H402.863L462.453 139H457.414L397.883 41.9688ZM407.785 41.9688H412.707L468.02 132.145V41.9688H472.238V139C472.238 139 470.578 139 467.258 139L407.785 41.9688ZM382.238 48.8242V139H378.02V41.9688C378.02 41.9688 379.699 41.9688 383.059 41.9688L442.531 139H437.668L382.238 48.8242Z" fill="white"/>
<path d="M8.01 177.97C7.51 178.13 6.9 178.21 6.18 178.21C5.46 178.21 4.84 178.13 4.32 177.97C3.82 177.81 3.41 177.47 3.09 176.95C2.77 176.43 2.52 175.95 2.34 175.51C2.16 175.07 2.03 174.32 1.95 173.26C1.87 172.18 1.82 171.28 1.8 170.56C1.8 169.82 1.8 168.64 1.8 167.02C1.8 165.4 1.8 164.23 1.8 163.51C1.82 162.79 1.87 161.9 1.95 160.84C2.03 159.78 2.16 159.04 2.34 158.62C2.52 158.2 2.77 157.74 3.09 157.24C3.41 156.74 3.82 156.42 4.32 156.28C4.84 156.12 5.46 156.04 6.18 156.04C6.9 156.04 7.51 156.12 8.01 156.28C8.51 156.44 8.92 156.77 9.24 157.27C9.56 157.75 9.81 158.2 9.99 158.62C10.17 159.04 10.3 159.78 10.38 160.84C10.46 161.9 10.5 162.79 10.5 163.51C10.52 164.23 10.53 165.4 10.53 167.02C10.53 168.64 10.52 169.82 10.5 170.56C10.5 171.28 10.46 172.18 10.38 173.26C10.3 174.32 10.17 175.07 9.99 175.51C9.81 175.95 9.56 176.43 9.24 176.95C8.92 177.47 8.51 177.81 8.01 177.97ZM3.69 167.05C3.69 170.55 3.82 172.96 4.08 174.28C4.34 175.58 5.03 176.23 6.15 176.23C7.29 176.23 7.99 175.58 8.25 174.28C8.51 172.96 8.64 170.55 8.64 167.05C8.64 163.55 8.51 161.17 8.25 159.91C7.99 158.63 7.29 157.99 6.15 157.99C5.03 157.99 4.34 158.62 4.08 159.88C3.82 161.14 3.69 163.53 3.69 167.05ZM14.7047 157.99V156.4H22.9847V157.99L16.0247 178H14.1047L20.9147 157.99H14.7047ZM32.6194 177.97C32.1194 178.13 31.5094 178.21 30.7894 178.21C30.0694 178.21 29.4494 178.13 28.9294 177.97C28.4294 177.81 28.0194 177.47 27.6994 176.95C27.3794 176.43 27.1294 175.95 26.9494 175.51C26.7694 175.07 26.6394 174.32 26.5594 173.26C26.4794 172.18 26.4294 171.28 26.4094 170.56C26.4094 169.82 26.4094 168.64 26.4094 167.02C26.4094 165.4 26.4094 164.23 26.4094 163.51C26.4294 162.79 26.4794 161.9 26.5594 160.84C26.6394 159.78 26.7694 159.04 26.9494 158.62C27.1294 158.2 27.3794 157.74 27.6994 157.24C28.0194 156.74 28.4294 156.42 28.9294 156.28C29.4494 156.12 30.0694 156.04 30.7894 156.04C31.5094 156.04 32.1194 156.12 32.6194 156.28C33.1194 156.44 33.5294 156.77 33.8494 157.27C34.1694 157.75 34.4194 158.2 34.5994 158.62C34.7794 159.04 34.9094 159.78 34.9894 160.84C35.0694 161.9 35.1094 162.79 35.1094 163.51C35.1294 164.23 35.1394 165.4 35.1394 167.02C35.1394 168.64 35.1294 169.82 35.1094 170.56C35.1094 171.28 35.0694 172.18 34.9894 173.26C34.9094 174.32 34.7794 175.07 34.5994 175.51C34.4194 175.95 34.1694 176.43 33.8494 176.95C33.5294 177.47 33.1194 177.81 32.6194 177.97ZM28.2994 167.05C28.2994 170.55 28.4294 172.96 28.6894 174.28C28.9494 175.58 29.6394 176.23 30.7594 176.23C31.8994 176.23 32.5994 175.58 32.8594 174.28C33.1194 172.96 33.2494 170.55 33.2494 167.05C33.2494 163.55 33.1194 161.17 32.8594 159.91C32.5994 158.63 31.8994 157.99 30.7594 157.99C29.6394 157.99 28.9494 158.62 28.6894 159.88C28.4294 161.14 28.2994 163.53 28.2994 167.05ZM39.3141 157.99V156.4H47.5941V157.99L40.6341 178H38.7141L45.5241 157.99H39.3141ZM57.2288 177.97C56.7288 178.13 56.1188 178.21 55.3988 178.21C54.6788 178.21 54.0588 178.13 53.5388 177.97C53.0388 177.81 52.6288 177.47 52.3088 176.95C51.9888 176.43 51.7388 175.95 51.5588 175.51C51.3788 175.07 51.2488 174.32 51.1688 173.26C51.0888 172.18 51.0388 171.28 51.0188 170.56C51.0188 169.82 51.0188 168.64 51.0188 167.02C51.0188 165.4 51.0188 164.23 51.0188 163.51C51.0388 162.79 51.0888 161.9 51.1688 160.84C51.2488 159.78 51.3788 159.04 51.5588 158.62C51.7388 158.2 51.9888 157.74 52.3088 157.24C52.6288 156.74 53.0388 156.42 53.5388 156.28C54.0588 156.12 54.6788 156.04 55.3988 156.04C56.1188 156.04 56.7288 156.12 57.2288 156.28C57.7288 156.44 58.1388 156.77 58.4588 157.27C58.7788 157.75 59.0288 158.2 59.2088 158.62C59.3888 159.04 59.5188 159.78 59.5988 160.84C59.6788 161.9 59.7188 162.79 59.7188 163.51C59.7388 164.23 59.7488 165.4 59.7488 167.02C59.7488 168.64 59.7388 169.82 59.7188 170.56C59.7188 171.28 59.6788 172.18 59.5988 173.26C59.5188 174.32 59.3888 175.07 59.2088 175.51C59.0288 175.95 58.7788 176.43 58.4588 176.95C58.1388 177.47 57.7288 177.81 57.2288 177.97ZM52.9088 167.05C52.9088 170.55 53.0388 172.96 53.2988 174.28C53.5588 175.58 54.2488 176.23 55.3688 176.23C56.5088 176.23 57.2088 175.58 57.4688 174.28C57.7288 172.96 57.8588 170.55 57.8588 167.05C57.8588 163.55 57.7288 161.17 57.4688 159.91C57.2088 158.63 56.5088 157.99 55.3688 157.99C54.2488 157.99 53.5588 158.62 53.2988 159.88C53.0388 161.14 52.9088 163.53 52.9088 167.05ZM69.5334 177.97C69.0334 178.13 68.4234 178.21 67.7034 178.21C66.9834 178.21 66.3634 178.13 65.8434 177.97C65.3434 177.81 64.9334 177.47 64.6134 176.95C64.2934 176.43 64.0434 175.95 63.8634 175.51C63.6834 175.07 63.5534 174.32 63.4734 173.26C63.3934 172.18 63.3434 171.28 63.3234 170.56C63.3234 169.82 63.3234 168.64 63.3234 167.02C63.3234 165.4 63.3234 164.23 63.3234 163.51C63.3434 162.79 63.3934 161.9 63.4734 160.84C63.5534 159.78 63.6834 159.04 63.8634 158.62C64.0434 158.2 64.2934 157.74 64.6134 157.24C64.9334 156.74 65.3434 156.42 65.8434 156.28C66.3634 156.12 66.9834 156.04 67.7034 156.04C68.4234 156.04 69.0334 156.12 69.5334 156.28C70.0334 156.44 70.4434 156.77 70.7634 157.27C71.0834 157.75 71.3334 158.2 71.5134 158.62C71.6934 159.04 71.8234 159.78 71.9034 160.84C71.9834 161.9 72.0234 162.79 72.0234 163.51C72.0434 164.23 72.0534 165.4 72.0534 167.02C72.0534 168.64 72.0434 169.82 72.0234 170.56C72.0234 171.28 71.9834 172.18 71.9034 173.26C71.8234 174.32 71.6934 175.07 71.5134 175.51C71.3334 175.95 71.0834 176.43 70.7634 176.95C70.4434 177.47 70.0334 177.81 69.5334 177.97ZM65.2134 167.05C65.2134 170.55 65.3434 172.96 65.6034 174.28C65.8634 175.58 66.5534 176.23 67.6734 176.23C68.8134 176.23 69.5134 175.58 69.7734 174.28C70.0334 172.96 70.1634 170.55 70.1634 167.05C70.1634 163.55 70.0334 161.17 69.7734 159.91C69.5134 158.63 68.8134 157.99 67.6734 157.99C66.5534 157.99 65.8634 158.62 65.6034 159.88C65.3434 161.14 65.2134 163.53 65.2134 167.05ZM76.2281 157.99V156.4H84.5081V157.99L77.5481 178H75.6281L82.4381 157.99H76.2281ZM88.5328 157.99V156.4H96.8128V157.99L89.8528 178H87.9328L94.7428 157.99H88.5328ZM106.448 177.97C105.948 178.13 105.338 178.21 104.618 178.21C103.898 178.21 103.278 178.13 102.758 177.97C102.258 177.81 101.848 177.47 101.528 176.95C101.208 176.43 100.958 175.95 100.778 175.51C100.598 175.07 100.468 174.32 100.388 173.26C100.308 172.18 100.258 171.28 100.238 170.56C100.238 169.82 100.238 168.64 100.238 167.02C100.238 165.4 100.238 164.23 100.238 163.51C100.258 162.79 100.308 161.9 100.388 160.84C100.468 159.78 100.598 159.04 100.778 158.62C100.958 158.2 101.208 157.74 101.528 157.24C101.848 156.74 102.258 156.42 102.758 156.28C103.278 156.12 103.898 156.04 104.618 156.04C105.338 156.04 105.948 156.12 106.448 156.28C106.948 156.44 107.358 156.77 107.678 157.27C107.998 157.75 108.248 158.2 108.428 158.62C108.608 159.04 108.738 159.78 108.818 160.84C108.898 161.9 108.938 162.79 108.938 163.51C108.958 164.23 108.968 165.4 108.968 167.02C108.968 168.64 108.958 169.82 108.938 170.56C108.938 171.28 108.898 172.18 108.818 173.26C108.738 174.32 108.608 175.07 108.428 175.51C108.248 175.95 107.998 176.43 107.678 176.95C107.358 177.47 106.948 177.81 106.448 177.97ZM102.128 167.05C102.128 170.55 102.258 172.96 102.518 174.28C102.778 175.58 103.468 176.23 104.588 176.23C105.728 176.23 106.428 175.58 106.688 174.28C106.948 172.96 107.078 170.55 107.078 167.05C107.078 163.55 106.948 161.17 106.688 159.91C106.428 158.63 105.728 157.99 104.588 157.99C103.468 157.99 102.778 158.62 102.518 159.88C102.258 161.14 102.128 163.53 102.128 167.05ZM113.142 157.99V156.4H121.422V157.99L114.462 178H112.542L119.352 157.99H113.142ZM131.057 177.97C130.557 178.13 129.947 178.21 129.227 178.21C128.507 178.21 127.887 178.13 127.367 177.97C126.867 177.81 126.457 177.47 126.137 176.95C125.817 176.43 125.567 175.95 125.387 175.51C125.207 175.07 125.077 174.32 124.997 173.26C124.917 172.18 124.867 171.28 124.847 170.56C124.847 169.82 124.847 168.64 124.847 167.02C124.847 165.4 124.847 164.23 124.847 163.51C124.867 162.79 124.917 161.9 124.997 160.84C125.077 159.78 125.207 159.04 125.387 158.62C125.567 158.2 125.817 157.74 126.137 157.24C126.457 156.74 126.867 156.42 127.367 156.28C127.887 156.12 128.507 156.04 129.227 156.04C129.947 156.04 130.557 156.12 131.057 156.28C131.557 156.44 131.967 156.77 132.287 157.27C132.607 157.75 132.857 158.2 133.037 158.62C133.217 159.04 133.347 159.78 133.427 160.84C133.507 161.9 133.547 162.79 133.547 163.51C133.567 164.23 133.577 165.4 133.577 167.02C133.577 168.64 133.567 169.82 133.547 170.56C133.547 171.28 133.507 172.18 133.427 173.26C133.347 174.32 133.217 175.07 133.037 175.51C132.857 175.95 132.607 176.43 132.287 176.95C131.967 177.47 131.557 177.81 131.057 177.97ZM126.737 167.05C126.737 170.55 126.867 172.96 127.127 174.28C127.387 175.58 128.077 176.23 129.197 176.23C130.337 176.23 131.037 175.58 131.297 174.28C131.557 172.96 131.687 170.55 131.687 167.05C131.687 163.55 131.557 161.17 131.297 159.91C131.037 158.63 130.337 157.99 129.197 157.99C128.077 157.99 127.387 158.62 127.127 159.88C126.867 161.14 126.737 163.53 126.737 167.05ZM143.362 177.97C142.862 178.13 142.252 178.21 141.532 178.21C140.812 178.21 140.192 178.13 139.672 177.97C139.172 177.81 138.762 177.47 138.442 176.95C138.122 176.43 137.872 175.95 137.692 175.51C137.512 175.07 137.382 174.32 137.302 173.26C137.222 172.18 137.172 171.28 137.152 170.56C137.152 169.82 137.152 168.64 137.152 167.02C137.152 165.4 137.152 164.23 137.152 163.51C137.172 162.79 137.222 161.9 137.302 160.84C137.382 159.78 137.512 159.04 137.692 158.62C137.872 158.2 138.122 157.74 138.442 157.24C138.762 156.74 139.172 156.42 139.672 156.28C140.192 156.12 140.812 156.04 141.532 156.04C142.252 156.04 142.862 156.12 143.362 156.28C143.862 156.44 144.272 156.77 144.592 157.27C144.912 157.75 145.162 158.2 145.342 158.62C145.522 159.04 145.652 159.78 145.732 160.84C145.812 161.9 145.852 162.79 145.852 163.51C145.872 164.23 145.882 165.4 145.882 167.02C145.882 168.64 145.872 169.82 145.852 170.56C145.852 171.28 145.812 172.18 145.732 173.26C145.652 174.32 145.522 175.07 145.342 175.51C145.162 175.95 144.912 176.43 144.592 176.95C144.272 177.47 143.862 177.81 143.362 177.97ZM139.042 167.05C139.042 170.55 139.172 172.96 139.432 174.28C139.692 175.58 140.382 176.23 141.502 176.23C142.642 176.23 143.342 175.58 143.602 174.28C143.862 172.96 143.992 170.55 143.992 167.05C143.992 163.55 143.862 161.17 143.602 159.91C143.342 158.63 142.642 157.99 141.502 157.99C140.382 157.99 139.692 158.62 139.432 159.88C139.172 161.14 139.042 163.53 139.042 167.05ZM155.666 177.97C155.166 178.13 154.556 178.21 153.836 178.21C153.116 178.21 152.496 178.13 151.976 177.97C151.476 177.81 151.066 177.47 150.746 176.95C150.426 176.43 150.176 175.95 149.996 175.51C149.816 175.07 149.686 174.32 149.606 173.26C149.526 172.18 149.476 171.28 149.456 170.56C149.456 169.82 149.456 168.64 149.456 167.02C149.456 165.4 149.456 164.23 149.456 163.51C149.476 162.79 149.526 161.9 149.606 160.84C149.686 159.78 149.816 159.04 149.996 158.62C150.176 158.2 150.426 157.74 150.746 157.24C151.066 156.74 151.476 156.42 151.976 156.28C152.496 156.12 153.116 156.04 153.836 156.04C154.556 156.04 155.166 156.12 155.666 156.28C156.166 156.44 156.576 156.77 156.896 157.27C157.216 157.75 157.466 158.2 157.646 158.62C157.826 159.04 157.956 159.78 158.036 160.84C158.116 161.9 158.156 162.79 158.156 163.51C158.176 164.23 158.186 165.4 158.186 167.02C158.186 168.64 158.176 169.82 158.156 170.56C158.156 171.28 158.116 172.18 158.036 173.26C157.956 174.32 157.826 175.07 157.646 175.51C157.466 175.95 157.216 176.43 156.896 176.95C156.576 177.47 156.166 177.81 155.666 177.97ZM151.346 167.05C151.346 170.55 151.476 172.96 151.736 174.28C151.996 175.58 152.686 176.23 153.806 176.23C154.946 176.23 155.646 175.58 155.906 174.28C156.166 172.96 156.296 170.55 156.296 167.05C156.296 163.55 156.166 161.17 155.906 159.91C155.646 158.63 154.946 157.99 153.806 157.99C152.686 157.99 151.996 158.62 151.736 159.88C151.476 161.14 151.346 163.53 151.346 167.05ZM162.361 157.99V156.4H170.641V157.99L163.681 178H161.761L168.571 157.99H162.361ZM180.276 177.97C179.776 178.13 179.166 178.21 178.446 178.21C177.726 178.21 177.106 178.13 176.586 177.97C176.086 177.81 175.676 177.47 175.356 176.95C175.036 176.43 174.786 175.95 174.606 175.51C174.426 175.07 174.296 174.32 174.216 173.26C174.136 172.18 174.086 171.28 174.066 170.56C174.066 169.82 174.066 168.64 174.066 167.02C174.066 165.4 174.066 164.23 174.066 163.51C174.086 162.79 174.136 161.9 174.216 160.84C174.296 159.78 174.426 159.04 174.606 158.62C174.786 158.2 175.036 157.74 175.356 157.24C175.676 156.74 176.086 156.42 176.586 156.28C177.106 156.12 177.726 156.04 178.446 156.04C179.166 156.04 179.776 156.12 180.276 156.28C180.776 156.44 181.186 156.77 181.506 157.27C181.826 157.75 182.076 158.2 182.256 158.62C182.436 159.04 182.566 159.78 182.646 160.84C182.726 161.9 182.766 162.79 182.766 163.51C182.786 164.23 182.796 165.4 182.796 167.02C182.796 168.64 182.786 169.82 182.766 170.56C182.766 171.28 182.726 172.18 182.646 173.26C182.566 174.32 182.436 175.07 182.256 175.51C182.076 175.95 181.826 176.43 181.506 176.95C181.186 177.47 180.776 177.81 180.276 177.97ZM175.956 167.05C175.956 170.55 176.086 172.96 176.346 174.28C176.606 175.58 177.296 176.23 178.416 176.23C179.556 176.23 180.256 175.58 180.516 174.28C180.776 172.96 180.906 170.55 180.906 167.05C180.906 163.55 180.776 161.17 180.516 159.91C180.256 158.63 179.556 157.99 178.416 157.99C177.296 157.99 176.606 158.62 176.346 159.88C176.086 161.14 175.956 163.53 175.956 167.05ZM186.97 157.99V156.4H195.25V157.99L188.29 178H186.37L193.18 157.99H186.97ZM204.885 177.97C204.385 178.13 203.775 178.21 203.055 178.21C202.335 178.21 201.715 178.13 201.195 177.97C200.695 177.81 200.285 177.47 199.965 176.95C199.645 176.43 199.395 175.95 199.215 175.51C199.035 175.07 198.905 174.32 198.825 173.26C198.745 172.18 198.695 171.28 198.675 170.56C198.675 169.82 198.675 168.64 198.675 167.02C198.675 165.4 198.675 164.23 198.675 163.51C198.695 162.79 198.745 161.9 198.825 160.84C198.905 159.78 199.035 159.04 199.215 158.62C199.395 158.2 199.645 157.74 199.965 157.24C200.285 156.74 200.695 156.42 201.195 156.28C201.715 156.12 202.335 156.04 203.055 156.04C203.775 156.04 204.385 156.12 204.885 156.28C205.385 156.44 205.795 156.77 206.115 157.27C206.435 157.75 206.685 158.2 206.865 158.62C207.045 159.04 207.175 159.78 207.255 160.84C207.335 161.9 207.375 162.79 207.375 163.51C207.395 164.23 207.405 165.4 207.405 167.02C207.405 168.64 207.395 169.82 207.375 170.56C207.375 171.28 207.335 172.18 207.255 173.26C207.175 174.32 207.045 175.07 206.865 175.51C206.685 175.95 206.435 176.43 206.115 176.95C205.795 177.47 205.385 177.81 204.885 177.97ZM200.565 167.05C200.565 170.55 200.695 172.96 200.955 174.28C201.215 175.58 201.905 176.23 203.025 176.23C204.165 176.23 204.865 175.58 205.125 174.28C205.385 172.96 205.515 170.55 205.515 167.05C205.515 163.55 205.385 161.17 205.125 159.91C204.865 158.63 204.165 157.99 203.025 157.99C201.905 157.99 201.215 158.62 200.955 159.88C200.695 161.14 200.565 163.53 200.565 167.05ZM211.58 157.99V156.4H219.86V157.99L212.9 178H210.98L217.79 157.99H211.58ZM229.494 177.97C228.994 178.13 228.384 178.21 227.664 178.21C226.944 178.21 226.324 178.13 225.804 177.97C225.304 177.81 224.894 177.47 224.574 176.95C224.254 176.43 224.004 175.95 223.824 175.51C223.644 175.07 223.514 174.32 223.434 173.26C223.354 172.18 223.304 171.28 223.284 170.56C223.284 169.82 223.284 168.64 223.284 167.02C223.284 165.4 223.284 164.23 223.284 163.51C223.304 162.79 223.354 161.9 223.434 160.84C223.514 159.78 223.644 159.04 223.824 158.62C224.004 158.2 224.254 157.74 224.574 157.24C224.894 156.74 225.304 156.42 225.804 156.28C226.324 156.12 226.944 156.04 227.664 156.04C228.384 156.04 228.994 156.12 229.494 156.28C229.994 156.44 230.404 156.77 230.724 157.27C231.044 157.75 231.294 158.2 231.474 158.62C231.654 159.04 231.784 159.78 231.864 160.84C231.944 161.9 231.984 162.79 231.984 163.51C232.004 164.23 232.014 165.4 232.014 167.02C232.014 168.64 232.004 169.82 231.984 170.56C231.984 171.28 231.944 172.18 231.864 173.26C231.784 174.32 231.654 175.07 231.474 175.51C231.294 175.95 231.044 176.43 230.724 176.95C230.404 177.47 229.994 177.81 229.494 177.97ZM225.174 167.05C225.174 170.55 225.304 172.96 225.564 174.28C225.824 175.58 226.514 176.23 227.634 176.23C228.774 176.23 229.474 175.58 229.734 174.28C229.994 172.96 230.124 170.55 230.124 167.05C230.124 163.55 229.994 161.17 229.734 159.91C229.474 158.63 228.774 157.99 227.634 157.99C226.514 157.99 225.824 158.62 225.564 159.88C225.304 161.14 225.174 163.53 225.174 167.05ZM236.189 157.99V156.4H244.469V157.99L237.509 178H235.589L242.399 157.99H236.189ZM254.104 177.97C253.604 178.13 252.994 178.21 252.274 178.21C251.554 178.21 250.934 178.13 250.414 177.97C249.914 177.81 249.504 177.47 249.184 176.95C248.864 176.43 248.614 175.95 248.434 175.51C248.254 175.07 248.124 174.32 248.044 173.26C247.964 172.18 247.914 171.28 247.894 170.56C247.894 169.82 247.894 168.64 247.894 167.02C247.894 165.4 247.894 164.23 247.894 163.51C247.914 162.79 247.964 161.9 248.044 160.84C248.124 159.78 248.254 159.04 248.434 158.62C248.614 158.2 248.864 157.74 249.184 157.24C249.504 156.74 249.914 156.42 250.414 156.28C250.934 156.12 251.554 156.04 252.274 156.04C252.994 156.04 253.604 156.12 254.104 156.28C254.604 156.44 255.014 156.77 255.334 157.27C255.654 157.75 255.904 158.2 256.084 158.62C256.264 159.04 256.394 159.78 256.474 160.84C256.554 161.9 256.594 162.79 256.594 163.51C256.614 164.23 256.624 165.4 256.624 167.02C256.624 168.64 256.614 169.82 256.594 170.56C256.594 171.28 256.554 172.18 256.474 173.26C256.394 174.32 256.264 175.07 256.084 175.51C255.904 175.95 255.654 176.43 255.334 176.95C255.014 177.47 254.604 177.81 254.104 177.97ZM249.784 167.05C249.784 170.55 249.914 172.96 250.174 174.28C250.434 175.58 251.124 176.23 252.244 176.23C253.384 176.23 254.084 175.58 254.344 174.28C254.604 172.96 254.734 170.55 254.734 167.05C254.734 163.55 254.604 161.17 254.344 159.91C254.084 158.63 253.384 157.99 252.244 157.99C251.124 157.99 250.434 158.62 250.174 159.88C249.914 161.14 249.784 163.53 249.784 167.05ZM260.798 157.99V156.4H269.078V157.99L262.118 178H260.198L267.008 157.99H260.798ZM273.103 157.99V156.4H281.383V157.99L274.423 178H272.503L279.313 157.99H273.103ZM291.018 177.97C290.518 178.13 289.908 178.21 289.188 178.21C288.468 178.21 287.848 178.13 287.328 177.97C286.828 177.81 286.418 177.47 286.098 176.95C285.778 176.43 285.528 175.95 285.348 175.51C285.168 175.07 285.038 174.32 284.958 173.26C284.878 172.18 284.828 171.28 284.808 170.56C284.808 169.82 284.808 168.64 284.808 167.02C284.808 165.4 284.808 164.23 284.808 163.51C284.828 162.79 284.878 161.9 284.958 160.84C285.038 159.78 285.168 159.04 285.348 158.62C285.528 158.2 285.778 157.74 286.098 157.24C286.418 156.74 286.828 156.42 287.328 156.28C287.848 156.12 288.468 156.04 289.188 156.04C289.908 156.04 290.518 156.12 291.018 156.28C291.518 156.44 291.928 156.77 292.248 157.27C292.568 157.75 292.818 158.2 292.998 158.62C293.178 159.04 293.308 159.78 293.388 160.84C293.468 161.9 293.508 162.79 293.508 163.51C293.528 164.23 293.538 165.4 293.538 167.02C293.538 168.64 293.528 169.82 293.508 170.56C293.508 171.28 293.468 172.18 293.388 173.26C293.308 174.32 293.178 175.07 292.998 175.51C292.818 175.95 292.568 176.43 292.248 176.95C291.928 177.47 291.518 177.81 291.018 177.97ZM286.698 167.05C286.698 170.55 286.828 172.96 287.088 174.28C287.348 175.58 288.038 176.23 289.158 176.23C290.298 176.23 290.998 175.58 291.258 174.28C291.518 172.96 291.648 170.55 291.648 167.05C291.648 163.55 291.518 161.17 291.258 159.91C290.998 158.63 290.298 157.99 289.158 157.99C288.038 157.99 287.348 158.62 287.088 159.88C286.828 161.14 286.698 163.53 286.698 167.05ZM303.323 177.97C302.823 178.13 302.213 178.21 301.493 178.21C300.773 178.21 300.153 178.13 299.633 177.97C299.133 177.81 298.723 177.47 298.403 176.95C298.083 176.43 297.833 175.95 297.653 175.51C297.473 175.07 297.343 174.32 297.263 173.26C297.183 172.18 297.133 171.28 297.113 170.56C297.113 169.82 297.113 168.64 297.113 167.02C297.113 165.4 297.113 164.23 297.113 163.51C297.133 162.79 297.183 161.9 297.263 160.84C297.343 159.78 297.473 159.04 297.653 158.62C297.833 158.2 298.083 157.74 298.403 157.24C298.723 156.74 299.133 156.42 299.633 156.28C300.153 156.12 300.773 156.04 301.493 156.04C302.213 156.04 302.823 156.12 303.323 156.28C303.823 156.44 304.233 156.77 304.553 157.27C304.873 157.75 305.123 158.2 305.303 158.62C305.483 159.04 305.613 159.78 305.693 160.84C305.773 161.9 305.813 162.79 305.813 163.51C305.833 164.23 305.843 165.4 305.843 167.02C305.843 168.64 305.833 169.82 305.813 170.56C305.813 171.28 305.773 172.18 305.693 173.26C305.613 174.32 305.483 175.07 305.303 175.51C305.123 175.95 304.873 176.43 304.553 176.95C304.233 177.47 303.823 177.81 303.323 177.97ZM299.003 167.05C299.003 170.55 299.133 172.96 299.393 174.28C299.653 175.58 300.343 176.23 301.463 176.23C302.603 176.23 303.303 175.58 303.563 174.28C303.823 172.96 303.953 170.55 303.953 167.05C303.953 163.55 303.823 161.17 303.563 159.91C303.303 158.63 302.603 157.99 301.463 157.99C300.343 157.99 299.653 158.62 299.393 159.88C299.133 161.14 299.003 163.53 299.003 167.05ZM310.017 157.99V156.4H318.297V157.99L311.337 178H309.417L316.227 157.99H310.017ZM327.932 177.97C327.432 178.13 326.822 178.21 326.102 178.21C325.382 178.21 324.762 178.13 324.242 177.97C323.742 177.81 323.332 177.47 323.012 176.95C322.692 176.43 322.442 175.95 322.262 175.51C322.082 175.07 321.952 174.32 321.872 173.26C321.792 172.18 321.742 171.28 321.722 170.56C321.722 169.82 321.722 168.64 321.722 167.02C321.722 165.4 321.722 164.23 321.722 163.51C321.742 162.79 321.792 161.9 321.872 160.84C321.952 159.78 322.082 159.04 322.262 158.62C322.442 158.2 322.692 157.74 323.012 157.24C323.332 156.74 323.742 156.42 324.242 156.28C324.762 156.12 325.382 156.04 326.102 156.04C326.822 156.04 327.432 156.12 327.932 156.28C328.432 156.44 328.842 156.77 329.162 157.27C329.482 157.75 329.732 158.2 329.912 158.62C330.092 159.04 330.222 159.78 330.302 160.84C330.382 161.9 330.422 162.79 330.422 163.51C330.442 164.23 330.452 165.4 330.452 167.02C330.452 168.64 330.442 169.82 330.422 170.56C330.422 171.28 330.382 172.18 330.302 173.26C330.222 174.32 330.092 175.07 329.912 175.51C329.732 175.95 329.482 176.43 329.162 176.95C328.842 177.47 328.432 177.81 327.932 177.97ZM323.612 167.05C323.612 170.55 323.742 172.96 324.002 174.28C324.262 175.58 324.952 176.23 326.072 176.23C327.212 176.23 327.912 175.58 328.172 174.28C328.432 172.96 328.562 170.55 328.562 167.05C328.562 163.55 328.432 161.17 328.172 159.91C327.912 158.63 327.212 157.99 326.072 157.99C324.952 157.99 324.262 158.62 324.002 159.88C323.742 161.14 323.612 163.53 323.612 167.05ZM340.237 177.97C339.737 178.13 339.127 178.21 338.407 178.21C337.687 178.21 337.067 178.13 336.547 177.97C336.047 177.81 335.637 177.47 335.317 176.95C334.997 176.43 334.747 175.95 334.567 175.51C334.387 175.07 334.257 174.32 334.177 173.26C334.097 172.18 334.047 171.28 334.027 170.56C334.027 169.82 334.027 168.64 334.027 167.02C334.027 165.4 334.027 164.23 334.027 163.51C334.047 162.79 334.097 161.9 334.177 160.84C334.257 159.78 334.387 159.04 334.567 158.62C334.747 158.2 334.997 157.74 335.317 157.24C335.637 156.74 336.047 156.42 336.547 156.28C337.067 156.12 337.687 156.04 338.407 156.04C339.127 156.04 339.737 156.12 340.237 156.28C340.737 156.44 341.147 156.77 341.467 157.27C341.787 157.75 342.037 158.2 342.217 158.62C342.397 159.04 342.527 159.78 342.607 160.84C342.687 161.9 342.727 162.79 342.727 163.51C342.747 164.23 342.757 165.4 342.757 167.02C342.757 168.64 342.747 169.82 342.727 170.56C342.727 171.28 342.687 172.18 342.607 173.26C342.527 174.32 342.397 175.07 342.217 175.51C342.037 175.95 341.787 176.43 341.467 176.95C341.147 177.47 340.737 177.81 340.237 177.97ZM335.917 167.05C335.917 170.55 336.047 172.96 336.307 174.28C336.567 175.58 337.257 176.23 338.377 176.23C339.517 176.23 340.217 175.58 340.477 174.28C340.737 172.96 340.867 170.55 340.867 167.05C340.867 163.55 340.737 161.17 340.477 159.91C340.217 158.63 339.517 157.99 338.377 157.99C337.257 157.99 336.567 158.62 336.307 159.88C336.047 161.14 335.917 163.53 335.917 167.05ZM352.541 177.97C352.041 178.13 351.431 178.21 350.711 178.21C349.991 178.21 349.371 178.13 348.851 177.97C348.351 177.81 347.941 177.47 347.621 176.95C347.301 176.43 347.051 175.95 346.871 175.51C346.691 175.07 346.561 174.32 346.481 173.26C346.401 172.18 346.351 171.28 346.331 170.56C346.331 169.82 346.331 168.64 346.331 167.02C346.331 165.4 346.331 164.23 346.331 163.51C346.351 162.79 346.401 161.9 346.481 160.84C346.561 159.78 346.691 159.04 346.871 158.62C347.051 158.2 347.301 157.74 347.621 157.24C347.941 156.74 348.351 156.42 348.851 156.28C349.371 156.12 349.991 156.04 350.711 156.04C351.431 156.04 352.041 156.12 352.541 156.28C353.041 156.44 353.451 156.77 353.771 157.27C354.091 157.75 354.341 158.2 354.521 158.62C354.701 159.04 354.831 159.78 354.911 160.84C354.991 161.9 355.031 162.79 355.031 163.51C355.051 164.23 355.061 165.4 355.061 167.02C355.061 168.64 355.051 169.82 355.031 170.56C355.031 171.28 354.991 172.18 354.911 173.26C354.831 174.32 354.701 175.07 354.521 175.51C354.341 175.95 354.091 176.43 353.771 176.95C353.451 177.47 353.041 177.81 352.541 177.97ZM348.221 167.05C348.221 170.55 348.351 172.96 348.611 174.28C348.871 175.58 349.561 176.23 350.681 176.23C351.821 176.23 352.521 175.58 352.781 174.28C353.041 172.96 353.171 170.55 353.171 167.05C353.171 163.55 353.041 161.17 352.781 159.91C352.521 158.63 351.821 157.99 350.681 157.99C349.561 157.99 348.871 158.62 348.611 159.88C348.351 161.14 348.221 163.53 348.221 167.05ZM359.236 157.99V156.4H367.516V157.99L360.556 178H358.636L365.446 157.99H359.236ZM377.151 177.97C376.651 178.13 376.041 178.21 375.321 178.21C374.601 178.21 373.981 178.13 373.461 177.97C372.961 177.81 372.551 177.47 372.231 176.95C371.911 176.43 371.661 175.95 371.481 175.51C371.301 175.07 371.171 174.32 371.091 173.26C371.011 172.18 370.961 171.28 370.941 170.56C370.941 169.82 370.941 168.64 370.941 167.02C370.941 165.4 370.941 164.23 370.941 163.51C370.961 162.79 371.011 161.9 371.091 160.84C371.171 159.78 371.301 159.04 371.481 158.62C371.661 158.2 371.911 157.74 372.231 157.24C372.551 156.74 372.961 156.42 373.461 156.28C373.981 156.12 374.601 156.04 375.321 156.04C376.041 156.04 376.651 156.12 377.151 156.28C377.651 156.44 378.061 156.77 378.381 157.27C378.701 157.75 378.951 158.2 379.131 158.62C379.311 159.04 379.441 159.78 379.521 160.84C379.601 161.9 379.641 162.79 379.641 163.51C379.661 164.23 379.671 165.4 379.671 167.02C379.671 168.64 379.661 169.82 379.641 170.56C379.641 171.28 379.601 172.18 379.521 173.26C379.441 174.32 379.311 175.07 379.131 175.51C378.951 175.95 378.701 176.43 378.381 176.95C378.061 177.47 377.651 177.81 377.151 177.97ZM372.831 167.05C372.831 170.55 372.961 172.96 373.221 174.28C373.481 175.58 374.171 176.23 375.291 176.23C376.431 176.23 377.131 175.58 377.391 174.28C377.651 172.96 377.781 170.55 377.781 167.05C377.781 163.55 377.651 161.17 377.391 159.91C377.131 158.63 376.431 157.99 375.291 157.99C374.171 157.99 373.481 158.62 373.221 159.88C372.961 161.14 372.831 163.53 372.831 167.05ZM383.845 157.99V156.4H392.125V157.99L385.165 178H383.245L390.055 157.99H383.845ZM401.76 177.97C401.26 178.13 400.65 178.21 399.93 178.21C399.21 178.21 398.59 178.13 398.07 177.97C397.57 177.81 397.16 177.47 396.84 176.95C396.52 176.43 396.27 175.95 396.09 175.51C395.91 175.07 395.78 174.32 395.7 173.26C395.62 172.18 395.57 171.28 395.55 170.56C395.55 169.82 395.55 168.64 395.55 167.02C395.55 165.4 395.55 164.23 395.55 163.51C395.57 162.79 395.62 161.9 395.7 160.84C395.78 159.78 395.91 159.04 396.09 158.62C396.27 158.2 396.52 157.74 396.84 157.24C397.16 156.74 397.57 156.42 398.07 156.28C398.59 156.12 399.21 156.04 399.93 156.04C400.65 156.04 401.26 156.12 401.76 156.28C402.26 156.44 402.67 156.77 402.99 157.27C403.31 157.75 403.56 158.2 403.74 158.62C403.92 159.04 404.05 159.78 404.13 160.84C404.21 161.9 404.25 162.79 404.25 163.51C404.27 164.23 404.28 165.4 404.28 167.02C404.28 168.64 404.27 169.82 404.25 170.56C404.25 171.28 404.21 172.18 404.13 173.26C404.05 174.32 403.92 175.07 403.74 175.51C403.56 175.95 403.31 176.43 402.99 176.95C402.67 177.47 402.26 177.81 401.76 177.97ZM397.44 167.05C397.44 170.55 397.57 172.96 397.83 174.28C398.09 175.58 398.78 176.23 399.9 176.23C401.04 176.23 401.74 175.58 402 174.28C402.26 172.96 402.39 170.55 402.39 167.05C402.39 163.55 402.26 161.17 402 159.91C401.74 158.63 401.04 157.99 399.9 157.99C398.78 157.99 398.09 158.62 397.83 159.88C397.57 161.14 397.44 163.53 397.44 167.05ZM408.455 157.99V156.4H416.735V157.99L409.775 178H407.855L414.665 157.99H408.455ZM426.369 177.97C425.869 178.13 425.259 178.21 424.539 178.21C423.819 178.21 423.199 178.13 422.679 177.97C422.179 177.81 421.769 177.47 421.449 176.95C421.129 176.43 420.879 175.95 420.699 175.51C420.519 175.07 420.389 174.32 420.309 173.26C420.229 172.18 420.179 171.28 420.159 170.56C420.159 169.82 420.159 168.64 420.159 167.02C420.159 165.4 420.159 164.23 420.159 163.51C420.179 162.79 420.229 161.9 420.309 160.84C420.389 159.78 420.519 159.04 420.699 158.62C420.879 158.2 421.129 157.74 421.449 157.24C421.769 156.74 422.179 156.42 422.679 156.28C423.199 156.12 423.819 156.04 424.539 156.04C425.259 156.04 425.869 156.12 426.369 156.28C426.869 156.44 427.279 156.77 427.599 157.27C427.919 157.75 428.169 158.2 428.349 158.62C428.529 159.04 428.659 159.78 428.739 160.84C428.819 161.9 428.859 162.79 428.859 163.51C428.879 164.23 428.889 165.4 428.889 167.02C428.889 168.64 428.879 169.82 428.859 170.56C428.859 171.28 428.819 172.18 428.739 173.26C428.659 174.32 428.529 175.07 428.349 175.51C428.169 175.95 427.919 176.43 427.599 176.95C427.279 177.47 426.869 177.81 426.369 177.97ZM422.049 167.05C422.049 170.55 422.179 172.96 422.439 174.28C422.699 175.58 423.389 176.23 424.509 176.23C425.649 176.23 426.349 175.58 426.609 174.28C426.869 172.96 426.999 170.55 426.999 167.05C426.999 163.55 426.869 161.17 426.609 159.91C426.349 158.63 425.649 157.99 424.509 157.99C423.389 157.99 422.699 158.62 422.439 159.88C422.179 161.14 422.049 163.53 422.049 167.05ZM438.674 177.97C438.174 178.13 437.564 178.21 436.844 178.21C436.124 178.21 435.504 178.13 434.984 177.97C434.484 177.81 434.074 177.47 433.754 176.95C433.434 176.43 433.184 175.95 433.004 175.51C432.824 175.07 432.694 174.32 432.614 173.26C432.534 172.18 432.484 171.28 432.464 170.56C432.464 169.82 432.464 168.64 432.464 167.02C432.464 165.4 432.464 164.23 432.464 163.51C432.484 162.79 432.534 161.9 432.614 160.84C432.694 159.78 432.824 159.04 433.004 158.62C433.184 158.2 433.434 157.74 433.754 157.24C434.074 156.74 434.484 156.42 434.984 156.28C435.504 156.12 436.124 156.04 436.844 156.04C437.564 156.04 438.174 156.12 438.674 156.28C439.174 156.44 439.584 156.77 439.904 157.27C440.224 157.75 440.474 158.2 440.654 158.62C440.834 159.04 440.964 159.78 441.044 160.84C441.124 161.9 441.164 162.79 441.164 163.51C441.184 164.23 441.194 165.4 441.194 167.02C441.194 168.64 441.184 169.82 441.164 170.56C441.164 171.28 441.124 172.18 441.044 173.26C440.964 174.32 440.834 175.07 440.654 175.51C440.474 175.95 440.224 176.43 439.904 176.95C439.584 177.47 439.174 177.81 438.674 177.97ZM434.354 167.05C434.354 170.55 434.484 172.96 434.744 174.28C435.004 175.58 435.694 176.23 436.814 176.23C437.954 176.23 438.654 175.58 438.914 174.28C439.174 172.96 439.304 170.55 439.304 167.05C439.304 163.55 439.174 161.17 438.914 159.91C438.654 158.63 437.954 157.99 436.814 157.99C435.694 157.99 435.004 158.62 434.744 159.88C434.484 161.14 434.354 163.53 434.354 167.05ZM445.369 157.99V156.4H453.649V157.99L446.689 178H444.769L451.579 157.99H445.369ZM457.673 157.99V156.4H465.953V157.99L458.993 178H457.073L463.883 157.99H457.673ZM469.978 157.99V156.4H478.258V157.99L471.298 178H469.378L476.188 157.99H469.978ZM487.893 177.97C487.393 178.13 486.783 178.21 486.063 178.21C485.343 178.21 484.723 178.13 484.203 177.97C483.703 177.81 483.293 177.47 482.973 176.95C482.653 176.43 482.403 175.95 482.223 175.51C482.043 175.07 481.913 174.32 481.833 173.26C481.753 172.18 481.703 171.28 481.683 170.56C481.683 169.82 481.683 168.64 481.683 167.02C481.683 165.4 481.683 164.23 481.683 163.51C481.703 162.79 481.753 161.9 481.833 160.84C481.913 159.78 482.043 159.04 482.223 158.62C482.403 158.2 482.653 157.74 482.973 157.24C483.293 156.74 483.703 156.42 484.203 156.28C484.723 156.12 485.343 156.04 486.063 156.04C486.783 156.04 487.393 156.12 487.893 156.28C488.393 156.44 488.803 156.77 489.123 157.27C489.443 157.75 489.693 158.2 489.873 158.62C490.053 159.04 490.183 159.78 490.263 160.84C490.343 161.9 490.383 162.79 490.383 163.51C490.403 164.23 490.413 165.4 490.413 167.02C490.413 168.64 490.403 169.82 490.383 170.56C490.383 171.28 490.343 172.18 490.263 173.26C490.183 174.32 490.053 175.07 489.873 175.51C489.693 175.95 489.443 176.43 489.123 176.95C488.803 177.47 488.393 177.81 487.893 177.97ZM483.573 167.05C483.573 170.55 483.703 172.96 483.963 174.28C484.223 175.58 484.913 176.23 486.033 176.23C487.173 176.23 487.873 175.58 488.133 174.28C488.393 172.96 488.523 170.55 488.523 167.05C488.523 163.55 488.393 161.17 488.133 159.91C487.873 158.63 487.173 157.99 486.033 157.99C484.913 157.99 484.223 158.62 483.963 159.88C483.703 161.14 483.573 163.53 483.573 167.05Z" fill="white"/>
</svg>
